/* XPM */
static char *result[] = {
/* columns rows colors chars-per-pixel */
"75 75 18 1 ",
"  c gray16",
". c #393939",
"X c #C61821",
"o c #8C5A29",
"O c #BD6B21",
"+ c #FF7B00",
"@ c #529410",
"# c #7BBD21",
"$ c #39946B",
"% c #42DE73",
"& c #E79452",
"* c #F7A56B",
"= c #F7DE42",
"- c #2929CE",
"; c #EF63B5",
": c #8484F7",
"> c white",
", c None",
/* pixels */
",,,,,,,,,,,,,,,,,,,,,,,,,,,,,,               ,,,,,,,,,,,,,,,,,,,,,,,,,,,,,,",
",,,,,,,,,,,,,,,,,,,,,,,,,,,,,,               ,,,,,,,,,,,,,,,,,,,,,,,,,,,,,,",
",,,,,,,,,,,,,,,,,,,,,,,,,,,,,,               ,,,,,,,,,,,,,,,,,,,,,,,,,,,,,,",
",,,,,,,,,,,,,,,,,,,,,,,,,,,   @@@@@@@###@@@@@      ,,,,,,,,,,,,,,,,,,,,,,,,",
",,,,,,,,,,,,,,,,,,,,,,,,,,,   @@@@@@@###@@@@@      ,,,,,,,,,,,,,,,,,,,,,,,,",
",,,,,,,,,,,,,,,,,,,,,,,,,,,   @@@@@@@###@@@@@      ,,,,,,,,,,,,,,,,,,,,,,,,",
",,,,,,,,,,,,,,,,,,,,,,,,,,,   @@@@@@@###@@@@@      ,,,,,,,,,,,,,,,,,,,,,,,,",
",,,,,,,,,,,,,,,,,,,,,,,,   @@@@@@@##############@@@   ,,,,,,,,,,,,,,,,,,,,,",
",,,,,,,,,,,,,,,,,,,,,,,,   @@@@@@@##############@@@   ,,,,,,,,,,,,,,,,,,,,,",
",,,,,,,,,,,,,,,,,,,,,,,,   @@@@@@@##############@@@   ,,,,,,,,,,,,,,,,,,,,,",
",,,,,,,,,,,,,   ,,,,,      +++@@@@@@@###@@@@@+++   @@@       ,,,,,,,,,,,,,,",
",,,,,,,,,,,,,   ,,,,,      +++@@@@@@@###@@@@@+++   @@@       ,,,,,,,,,,,,,,",
",,,,,,,,,,,,,   ,,,,,      +++@@@@@@@###@@@@@+++   @@@       ,,,,,,,,,,,,,,",
",,,,,,,,,,   ***     ;;;      +++++++++++++++      @@@    ***   ,,,,,,,,,,,",
",,,,,,,,,,   ***     ;;;      +++++++++++++++      @@@    ***   ,,,,,,,,,,,",
",,,,,,,,,,   ***     ;;;      +++++++++++++++      @@@    ***   ,,,,,,,,,,,",
",,,,,,,,,,   ***     ;;;;;;;;;               ;;;;;;       ***   ,,,,,,,,,,,",
",,,,,,,,,,   ***     ;;;;;;;;;               ;;;;;;       ***   ,,,,,,,,,,,",
",,,,,,,,,,   ***     ;;;;;;;;;               ;;;;;;       ***   ,,,,,,,,,,,",
",,,,,,,,,,   ***     ;;;;;;;;;               ;;;;;;       ***   ,,,,,,,,,,,",
",,,,,,,,,,   ***     ;;;;;;;;;               ;;;;;;       ***   ,,,,,,,,,,,",
",,,,,,,,,,   OOO*****   ;;;;;;;;;;;;;;;;;;;;;;;;;;;   &&&&OOO   ,,,,,,,,,,,",
",,,,,,,,,,   OOO*****   ;;;;;;;;;;;;;;;;;;;;;;;;;;;   &&&&OOO   ,,,,,,,,,,,",
",,,,,,,,,,   OOO*****   ;;;;;;;;;;;;;;;;;;;;;;;;;;;   &&&&OOO   ,,,,,,,,,,,",
",,,,,,,,,,   OOO     ;;;                           ;;;    OOO   ,,,,,,,,,,,",
",,,,,,,,,,   OOO     ;;;                           ;;;    OOO   ,,,,,,,,,,,",
",,,,,,,,,,   OOO     ;;;                           ;;;    OOO   ,,,,,,,,,,,",
",,,,,,,,,,,,,   OOOOO   OOO>>>>>>>OOOOOO>>>>>>>>OOO   OOOO   ,,,,,,,,,,,,,,",
",,,,,,,,,,,,,   OOOOO   OOO>>>>>>>OOOOOO>>>>>>>>OOO   OOOO   ,,,,,,,,,,,,,,",
",,,,,,,,,,,,,   OOOOO   OOO>>>>>>>OOOOOO>>>>>>>>OOO   OOOO   ,,,,,,,,,,,,,,",
",,,,,,,,,,,,,,,,     OOOOOO>>>    &&&***     >>>OOOOOO    ,,,,,,,,,,,,,,,,,",
",,,,,,,,,,,,,,,,     OOOOOO>>>    &&&***     >>>OOOOOO    ,,,,,,,,,,,,,,,,,",
",,,,,,,,,,,,,,,,     OOOOOO>>>    &&&***     >>>OOOOOO    ,,,,,,,,,,,,,,,,,",
",,,,,,,,,,,,,,,,     OOOOOO>>>    &&&***     >>>OOOOOO    ,,,,,,,,,,,,,,,,,",
",,,,,,,,,,,,,,,,        OOO&&&    ******     &&&OOO       ,,,,,,,,,,,,,,,,,",
",,,,,,,,,,,,,,,,        OOO&&&    ******     &&&OOO       ,,,,,,,,,,,,,,,,,",
",,,,,,,,,,,,,,,,        OOO&&&    ******     &&&OOO       ,,,,,,,,,,,,,,,,,",
",,,,,,,,,,,,,...%%%%%$$$   OOO....&&&********OOO   $$$%%%%   ,,,,,,,,,,,,,,",
",,,,,,,,,,,,,...%%%%%$$$   OOO....&&&********OOO   $$$%%%%   ,,,,,,,,,,,,,,",
",,,,,,,,,,,,,...%%%%%$$$   OOO....&&&********OOO   $$$%%%%   ,,,,,,,,,,,,,,",
",,,,,,,,,,...>>>..............>>>>...OOO        $$$$$$    ooo   ,,,,,,,,,,,",
",,,,,,,,,,...>>>..............>>>>...OOO        $$$$$$    ooo   ,,,,,,,,,,,",
",,,,,,,,,,...>>>..............>>>>...OOO        $$$$$$    ooo   ,,,,,,,,,,,",
",,,,,,,,,,...>>>..............>>>>...OOO        $$$$$$    ooo   ,,,,,,,,,,,",
",,,,,,,,,,...>>>..............>>>>...OOO        $$$$$$    ooo   ,,,,,,,,,,,",
",,,,,,,,,,...>>>>>>>>>>>>>>>>>>>>>      $$$$$%%%$$$   ooooooo   ,,,,,,,,,,,",
",,,,,,,,,,...>>>>>>>>>>>>>>>>>>>>>      $$$$$%%%$$$   ooooooo   ,,,,,,,,,,,",
",,,,,,,,,,...>>>>>>>>>>>>>>>>>>>>>      $$$$$%%%$$$   ooooooo   ,,,,,,,,,,,",
",,,,,,,,,,...>>>-------------->>>>...%%%%%%%%%%%$$$       &&&   ,,,,,,,,,,,",
",,,,,,,,,,...>>>-------------->>>>...%%%%%%%%%%%$$$       &&&   ,,,,,,,,,,,",
",,,,,,,,,,...>>>-------------->>>>...%%%%%%%%%%%$$$       &&&   ,,,,,,,,,,,",
",,,,,,,,,,...>>>-----::::::--->>>>   %%%$$$$$$$$$$$   &&&&&&&   ,,,,,,,,,,,",
",,,,,,,,,,...>>>-----::::::--->>>>   %%%$$$$$$$$$$$   &&&&&&&   ,,,,,,,,,,,",
",,,,,,,,,,...>>>-----::::::--->>>>   %%%$$$$$$$$$$$   &&&&&&&   ,,,,,,,,,,,",
",,,,,,,,,,...>>>-----::::::--->>>>...===     ======$$$    &&&   ,,,,,,,,,,,",
",,,,,,,,,,...>>>-----::::::--->>>>...===     ======$$$    &&&   ,,,,,,,,,,,",
",,,,,,,,,,...>>>-----::::::--->>>>...===     ======$$$    &&&   ,,,,,,,,,,,",
",,,,,,,,,,...>>>-----::::::--->>>>...===     ======$$$    &&&   ,,,,,,,,,,,",
",,,,,,,,,,...>>>-----::::::--->>>>   ========$$$$$$          ,,,,,,,,,,,,,,",
",,,,,,,,,,...>>>-----::::::--->>>>   ========$$$$$$          ,,,,,,,,,,,,,,",
",,,,,,,,,,...>>>-----::::::--->>>>   ========$$$$$$          ,,,,,,,,,,,,,,",
",,,,,,,,,,,,,...>>>>>------>>>    $$$$$$$$$$$      XXX    ,,,,,,,,,,,,,,,,,",
",,,,,,,,,,,,,...>>>>>------>>>    $$$$$$$$$$$      XXX    ,,,,,,,,,,,,,,,,,",
",,,,,,,,,,,,,...>>>>>------>>>    $$$$$$$$$$$      XXX    ,,,,,,,,,,,,,,,,,",
",,,,,,,,,,,,,,,,.....>>>>>>                  XXX+++       ,,,,,,,,,,,,,,,,,",
",,,,,,,,,,,,,,,,.....>>>>>>                  XXX+++       ,,,,,,,,,,,,,,,,,",
",,,,,,,,,,,,,,,,.....>>>>>>                  XXX+++       ,,,,,,,,,,,,,,,,,",
",,,,,,,,,,,,,,,,,,,,,...                              ,,,,,,,,,,,,,,,,,,,,,",
",,,,,,,,,,,,,,,,,,,,,...                              ,,,,,,,,,,,,,,,,,,,,,",
",,,,,,,,,,,,,,,,,,,,,...                              ,,,,,,,,,,,,,,,,,,,,,",
",,,,,,,,,,,,,,,,,,,,,...                              ,,,,,,,,,,,,,,,,,,,,,",
",,,,,,,,,,,,,,,,,,,,,...                              ,,,,,,,,,,,,,,,,,,,,,",
",,,,,,,,,,,,,,,,,,,,,,,,,,,                     ,,,,,,,,,,,,,,,,,,,,,,,,,,,",
",,,,,,,,,,,,,,,,,,,,,,,,,,,                     ,,,,,,,,,,,,,,,,,,,,,,,,,,,",
",,,,,,,,,,,,,,,,,,,,,,,,,,,                     ,,,,,,,,,,,,,,,,,,,,,,,,,,,"
};
