/* XPM */
static char * 0_xpm[] = {
"75 75 3 1",
" 	c #000000",
".	c #000070",
"+	c #F8F8F8",
"                                                                           ",
"                                                                           ",
"                                                                           ",
"                                                                           ",
"                                                                           ",
"                         ....................                              ",
"                         ....................                              ",
"                         ....................                              ",
"                         ....................                              ",
"                         ....................                              ",
"                    ..........++++++++++..........                         ",
"                    ..........++++++++++..........                         ",
"                    ..........++++++++++..........                         ",
"                    ..........++++++++++..........                         ",
"                    ..........++++++++++..........                         ",
"                    .....+++++..........+++++.....                         ",
"                    .....+++++..........+++++.....                         ",
"                    .....+++++..........+++++.....                         ",
"                    .....+++++..........+++++.....                         ",
"                    .....+++++..........+++++.....                         ",
"                    .....+++++..........+++++.....                         ",
"                    .....+++++..........+++++.....                         ",
"                    .....+++++..........+++++.....                         ",
"                    .....+++++..........+++++.....                         ",
"                    .....+++++..........+++++.....                         ",
"                    .....+++++..........+++++.....                         ",
"                    .....+++++..........+++++.....                         ",
"                    .....+++++..........+++++.....                         ",
"                    .....+++++..........+++++.....                         ",
"                    .....+++++..........+++++.....                         ",
"                    .....+++++..........+++++.....                         ",
"                    .....+++++..........+++++.....                         ",
"                    .....+++++..........+++++.....                         ",
"                    .....+++++..........+++++.....                         ",
"                    .....+++++..........+++++.....                         ",
"                    .....+++++..........+++++.....                         ",
"                    .....+++++..........+++++.....                         ",
"                    .....+++++..........+++++.....                         ",
"                    .....+++++..........+++++.....                         ",
"                    .....+++++..........+++++.....                         ",
"                    .....+++++..........+++++.....                         ",
"                    .....+++++..........+++++.....                         ",
"                    .....+++++..........+++++.....                         ",
"                    .....+++++..........+++++.....                         ",
"                    .....+++++..........+++++.....                         ",
"                    .....+++++..........+++++.....                         ",
"                    .....+++++..........+++++.....                         ",
"                    .....+++++..........+++++.....                         ",
"                    .....+++++..........+++++.....                         ",
"                    .....+++++..........+++++.....                         ",
"                    .....+++++..........+++++.....                         ",
"                    .....+++++..........+++++.....                         ",
"                    .....+++++..........+++++.....                         ",
"                    .....+++++..........+++++.....                         ",
"                    .....+++++..........+++++.....                         ",
"                    .....+++++..........+++++.....                         ",
"                    .....+++++..........+++++.....                         ",
"                    .....+++++..........+++++.....                         ",
"                    .....+++++..........+++++.....                         ",
"                    .....+++++..........+++++.....                         ",
"                    ..........++++++++++..........                         ",
"                    ..........++++++++++..........                         ",
"                    ..........++++++++++..........                         ",
"                    ..........++++++++++..........                         ",
"                    ..........++++++++++..........                         ",
"                         ....................                              ",
"                         ....................                              ",
"                         ....................                              ",
"                         ....................                              ",
"                         ....................                              ",
"                                                                           ",
"                                                                           ",
"                                                                           ",
"                                                                           ",
"                                                                           "};
