/* XPM */
static char * 3_xpm[] = {
"75 75 4 1",
" 	c None",
".	c #000000",
"+	c #000070",
"@	c #F8F8F8",
"...........................................................................",
"...........................................................................",
"...........................................................................",
"...........................................................................",
"...........................................................................",
"...........................................................................",
"...........................................................................",
"...........................................................................",
"............................++++++++++++++++++.............................",
"............................++++++++++++++++++.............................",
"............................++++++++++++++++++.............................",
"............................++++++++++++++++++.............................",
"............................++++++++++++++++++.............................",
".......................+++++++++@@@@@@@@@@+++++++++........................",
".......................+++++++++@@@@@@@@@@+++++++++........................",
".......................+++++++++@@@@@@@@@@+++++++++........................",
".......................+++++++++@@@@@@@@@@+++++++++........................",
".......................+++++++++@@@@@@@@@@+++++++++........................",
".......................+++++@@@@++++++++++@@@@+++++........................",
".......................+++++@@@@++++++++++@@@@+++++........................",
".......................+++++@@@@++++++++++@@@@+++++........................",
".......................+++++@@@@++++++++++@@@@+++++........................",
".......................+++++@@@@++++++++++@@@@+++++........................",
".......................+++++@@@@++++++++++@@@@+++++........................",
".......................+++++@@@@++++++++++@@@@+++++........................",
".......................+++++@@@@++++++++++@@@@+++++........................",
".......................+++++@@@@++++++++++@@@@+++++........................",
".......................+++++++++++++++++++@@@@+++++........................",
".......................+++++++++++++++++++@@@@+++++........................",
".......................+++++++++++++++++++@@@@+++++........................",
".......................+++++++++++++++++++@@@@+++++........................",
".......................+++++++++++++++++++@@@@+++++........................",
"............................++++++++++++++@@@@+++++........................",
"............................++++++++++++++@@@@+++++........................",
"............................++++++++++++++@@@@+++++........................",
"............................++++++++++++++@@@@+++++........................",
"............................++++@@@@@@@@@@+++++++++........................",
"............................++++@@@@@@@@@@+++++++++........................",
"............................++++@@@@@@@@@@+++++++++........................",
"............................++++@@@@@@@@@@+++++++++........................",
"............................++++@@@@@@@@@@+++++++++........................",
"............................++++++++++++++@@@@+++++........................",
"............................++++++++++++++@@@@+++++........................",
"............................++++++++++++++@@@@+++++........................",
"............................++++++++++++++@@@@+++++........................",
"............................++++++++++++++@@@@+++++........................",
".......................+++++++++++++++++++@@@@+++++........................",
".......................+++++++++++++++++++@@@@+++++........................",
".......................+++++++++++++++++++@@@@+++++........................",
".......................+++++++++++++++++++@@@@+++++........................",
".......................+++++++++++++++++++@@@@+++++........................",
".......................+++++@@@@++++++++++@@@@+++++........................",
".......................+++++@@@@++++++++++@@@@+++++........................",
".......................+++++@@@@++++++++++@@@@+++++........................",
".......................+++++@@@@++++++++++@@@@+++++........................",
".......................+++++@@@@++++++++++@@@@+++++........................",
".......................+++++@@@@++++++++++@@@@+++++........................",
".......................+++++@@@@++++++++++@@@@+++++........................",
".......................+++++@@@@++++++++++@@@@+++++........................",
".......................+++++@@@@++++++++++@@@@+++++........................",
".......................+++++++++@@@@@@@@@@+++++++++........................",
".......................+++++++++@@@@@@@@@@+++++++++........................",
".......................+++++++++@@@@@@@@@@+++++++++........................",
".......................+++++++++@@@@@@@@@@+++++++++........................",
".......................+++++++++@@@@@@@@@@+++++++++........................",
"............................++++++++++++++++++.............................",
"............................++++++++++++++++++.............................",
"............................++++++++++++++++++.............................",
"............................++++++++++++++++++.............................",
"...........................................................................",
"...........................................................................",
"...........................................................................",
"...........................................................................",
"...........................................................................",
"                                                                           "};
