/* XPM */
static char * chest_xpm[] = {
"75 75 6 1",
" 	c None",
".	c #202020",
"+	c #D8B028",
"@	c #A83838",
"#	c #E0E0E0",
"$	c #D86868",
"                                                                           ",
"                                                                           ",
"                                                                           ",
"                                                                           ",
"                                                                           ",
"                                                                           ",
"                                                                           ",
"                                                                           ",
"                                                                           ",
"                                                                           ",
"          .......................................................          ",
"          .......................................................          ",
"          .......................................................          ",
"          .......................................................          ",
"          ....+++...@@@@###@@@@...+++++++...@@@@###@@@@...+++....          ",
"          ....+++...@@@@###@@@@...+++++++...@@@@###@@@@...+++....          ",
"          ....+++...@@@@###@@@@...+++++++...@@@@###@@@@...+++....          ",
"          ....+++...@@@@...@@@@...+++++++...@@@@...@@@@...+++....          ",
"          ....+++...@@@@...@@@@...+++++++...@@@@...@@@@...+++....          ",
"          ....+++...@@@@...@@@@...+++++++...@@@@...@@@@...+++....          ",
"          ....###...$$$$$$$$$$$...#######...$$$$$$$$$$$...###....          ",
"          ....###...$$$$$$$$$$$...#######...$$$$$$$$$$$...###....          ",
"          ....###...$$$$$$$$$$$...#######...$$$$$$$$$$$...###....          ",
"          ....###...$$$$$$$$$$$...#######...$$$$$$$$$$$...###....          ",
"          ....###...$$$$$$$$$$$...#######...$$$$$$$$$$$...###....          ",
"          ....###...$$$$$$$$$$$...#######...$$$$$$$$$$$...###....          ",
"          ....###...$$$$$$$$$$$...#######...$$$$$$$$$$$...###....          ",
"          ....###...@@@@@@@@@@@...#######...@@@@@@@@@@@...###....          ",
"          ....###...@@@@@@@@@@@...#######...@@@@@@@@@@@...###....          ",
"          ....###...@@@@@@@@@@@...#######...@@@@@@@@@@@...###....          ",
"          ....###...@@@@@@@@@@@...#######...@@@@@@@@@@@...###....          ",
"          ....+++...@@@@###@@@@...+++++++...@@@@###@@@@...+++....          ",
"          ....+++...@@@@###@@@@...+++++++...@@@@###@@@@...+++....          ",
"          ....+++...@@@@###@@@@...+++++++...@@@@###@@@@...+++....          ",
"          ....+++...@@@@...@@@@...+++++++...@@@@...@@@@...+++....          ",
"          ....+++...@@@@...@@@@...+++++++...@@@@...@@@@...+++....          ",
"          ....+++...@@@@...@@@@...+++++++...@@@@...@@@@...+++....          ",
"          ....+++...@@@@@@@@@@@...+++++++...@@@@@@@@@@@...+++....          ",
"          ....+++...@@@@@@@@@@@...+++++++...@@@@@@@@@@@...+++....          ",
"          ....+++...@@@@@@@@@@@...+++++++...@@@@@@@@@@@...+++....          ",
"          ....+++...@@@@@@@@@@@...+++++++...@@@@@@@@@@@...+++....          ",
"          ....+++.................+++++++.................+++....          ",
"          ....+++.................+++++++.................+++....          ",
"          ....+++.................+++++++.................+++....          ",
"          ....+++++++++++++++++#############+++++++++++++++++....          ",
"          ....+++++++++++++++++#############+++++++++++++++++....          ",
"          ....+++++++++++++++++#############+++++++++++++++++....          ",
"          ....+++++++++++++++++#############+++++++++++++++++....          ",
"          .....................+++.......+++.....................          ",
"          .....................+++.......+++.....................          ",
"          .....................+++.......+++.....................          ",
"          ....+++...@@@@@@@....+++++++++++++....@@@@@@@...+++....          ",
"          ....+++...@@@@@@@....+++++++++++++....@@@@@@@...+++....          ",
"          ....+++...@@@@@@@....+++++++++++++....@@@@@@@...+++....          ",
"          ....+++...@@@@@@@....+++++++++++++....@@@@@@@...+++....          ",
"          ....+++.........................................+++....          ",
"          ....+++.........................................+++....          ",
"          ....+++.........................................+++....          ",
"          ....+++++++++++++++++++++++++++++++++++++++++++++++....          ",
"          ....+++++++++++++++++++++++++++++++++++++++++++++++....          ",
"          ....+++++++++++++++++++++++++++++++++++++++++++++++....          ",
"          .......................................................          ",
"          .......................................................          ",
"          .......................................................          ",
"          .......................................................          ",
"                                                                           ",
"                                                                           ",
"                                                                           ",
"                                                                           ",
"                                                                           ",
"                                                                           ",
"                                                                           ",
"                                                                           ",
"                                                                           ",
"                                                                           "};
