/* XPM */
static char * enemy_five_xpm[] = {
"75 75 6 1",
" 	c None",
".	c #993333",
"+	c #CC6666",
"@	c #FFFFFF",
"#	c #C0C0C0",
"$	c #333333",
"                                                                           ",
"                                                                           ",
"                                                                           ",
"                                                                           ",
"                                                                           ",
"                                                                           ",
"                                                                           ",
"                                  .......                                  ",
"                                  .......                                  ",
"                                  .......                                  ",
"                               ...+++.......                               ",
"                               ...+++.......                               ",
"                               ...+++.......                               ",
"                               ...+++.......                               ",
"                           ....@@@@@@++++.......                           ",
"                           ....@@@@@@++++.......                           ",
"                           ....@@@@@@++++.......                           ",
"                        ...++++@@@++++++++++.......                        ",
"                        ...++++@@@++++++++++.......                        ",
"                        ...++++@@@++++++++++.......                        ",
"                        .......++++++++++..........                        ",
"                        .......++++++++++..........                        ",
"                        .......++++++++++..........                        ",
"                        .......++++++++++..........                        ",
"                 .......@@@....             ....@@@.......                 ",
"                 .......@@@....             ....@@@.......                 ",
"                 .......@@@....             ....@@@.......                 ",
"              ...+++.......    #############    ...++++......              ",
"              ...+++.......    #############    ...++++......              ",
"              ...+++.......    #############    ...++++......              ",
"              ...+++.......    #############    ...++++......              ",
"          ....@@@@@@++++   ####@@@@@@@@@@@@@####   @@@@+++.......          ",
"          ....@@@@@@++++   ####@@@@@@@@@@@@@####   @@@@+++.......          ",
"          ....@@@@@@++++   ####@@@@@@@@@@@@@####   @@@@+++.......          ",
"       ...++++@@@+++++++   ####   @@@@@@@   ####   ++++++++++.......       ",
"       ...++++@@@+++++++   ####   @@@@@@@   ####   ++++++++++.......       ",
"       ...++++@@@+++++++   ####   @@@@@@@   ####   ++++++++++.......       ",
"       .......++++++++++   ####$$$@@@@@@@$$$####   +++++++..........       ",
"       .......++++++++++   ####$$$@@@@@@@$$$####   +++++++..........       ",
"       .......++++++++++   ####$$$@@@@@@@$$$####   +++++++..........       ",
"       .......++++++++++   ####$$$@@@@@@@$$$####   +++++++..........       ",
"          .......+++.......    ###@@@@@@@###       ++++..........          ",
"          .......+++.......    ###@@@@@@@###       ++++..........          ",
"          .......+++.......    ###@@@@@@@###       ++++..........          ",
"              .............    @@@       @@@    .............              ",
"              .............    @@@       @@@    .............              ",
"              .............    @@@       @@@    .............              ",
"              .............    @@@       @@@    .............              ",
"                 .......@@@....   @@@++++   ....@@@.......                 ",
"                 .......@@@....   @@@++++   ....@@@.......                 ",
"                 .......@@@....   @@@++++   ....@@@.......                 ",
"                        ...++++@@@++++++++++.......                        ",
"                        ...++++@@@++++++++++.......                        ",
"                        ...++++@@@++++++++++.......                        ",
"                        ...++++@@@++++++++++.......                        ",
"                        .......++++++++++..........                        ",
"                        .......++++++++++..........                        ",
"                        .......++++++++++..........                        ",
"                           .......+++...........                           ",
"                           .......+++...........                           ",
"                           .......+++...........                           ",
"                               .............                               ",
"                               .............                               ",
"                               .............                               ",
"                               .............                               ",
"                                  .......                                  ",
"                                  .......                                  ",
"                                  .......                                  ",
"                                                                           ",
"                                                                           ",
"                                                                           ",
"                                                                           ",
"                                                                           ",
"                                                                           ",
"                                                                           "};
