/* XPM */
static char * floor_xpm[] = {
"75 75 3 1",
" 	c #304858",
".	c #587078",
"+	c #486070",
"   .......    ...+++++++...++++   .......   ....+++++++...+++++++...++++...",
"   .......    ...+++++++...++++   .......   ....+++++++...+++++++...++++...",
"   .......    ...+++++++...++++   .......   ....+++++++...+++++++...++++...",
"   .......    ...++++++++++++++   .......   ....++++++++++++++++++++++++...",
"   .......    ...++++++++++++++   .......   ....++++++++++++++++++++++++...",
"   .......    ...++++++++++++++   .......   ....++++++++++++++++++++++++...",
"   .......    ...++++++++++++++   .......   ....++++++++++++++++++++++++...",
"   .......       ..........++++   .......       ..........++++++++++....   ",
"   .......       ..........++++   .......       ..........++++++++++....   ",
"   .......       ..........++++   .......       ..........++++++++++....   ",
"                           ....                           ..........       ",
"                           ....                           ..........       ",
"                           ....                           ..........       ",
"                           ....                           ..........       ",
".......       ..........       ......       ...........                    ",
".......       ..........       ......       ...........                    ",
".......       ..........       ......       ...........                    ",
"+++++++...    ..........       ++++++....   ...........      .......    ...",
"+++++++...    ..........       ++++++....   ...........      .......    ...",
"+++++++...    ..........       ++++++....   ...........      .......    ...",
"+++++++...                     ++++++....                    .......    ...",
"+++++++...                     ++++++....                    .......    ...",
"+++++++...                     ++++++....                    .......    ...",
"+++++++...                     ++++++....                    .......    ...",
"...++++...       .................+++....       .............              ",
"...++++...       .................+++....       .............              ",
"...++++...       .................+++....       .............              ",
"+++++++...       ..............++++++....       .............    .......   ",
"+++++++...       ..............++++++....       .............    .......   ",
"+++++++...       ..............++++++....       .............    .......   ",
"+++++++...       ..............++++++....       .............    .......   ",
".......             .................              ..........    .......   ",
".......             .................              ..........    .......   ",
".......             .................              ..........    .......   ",
"          .......                        .......                           ",
"          .......                        .......                           ",
"          .......                        .......                           ",
".......   .......   .................    .......   ........................",
".......   .......   .................    .......   ........................",
".......   .......   .................    .......   ........................",
".......   .......   .................    .......   ........................",
".......          ...+++++++++++......           ...++++++++++++++++++++++++",
".......          ...+++++++++++......           ...++++++++++++++++++++++++",
".......          ...+++++++++++......           ...++++++++++++++++++++++++",
"              ...++++++++++++++             ....+++++++++++++....++++++++++",
"              ...++++++++++++++             ....+++++++++++++....++++++++++",
"              ...++++++++++++++             ....+++++++++++++....++++++++++",
"              ...++++++++++++++             ....+++++++++++++....++++++++++",
"              ...++++++++++++++             ....++++++++++++++++++++++++...",
"              ...++++++++++++++             ....++++++++++++++++++++++++...",
"              ...++++++++++++++             ....++++++++++++++++++++++++...",
"+++++++...       .......+++++++...       ..............   .......   ....+++",
"+++++++...       .......+++++++...       ..............   .......   ....+++",
"+++++++...       .......+++++++...       ..............   .......   ....+++",
"+++++++...       .......+++++++...       ..............   .......   ....+++",
".......             ...........             ...........   .......       ...",
".......             ...........             ...........   .......       ...",
".......             ...........             ...........   .......       ...",
"          .......                 .......                                  ",
"          .......                 .......                                  ",
"          .......                 .......                                  ",
".......   .......   ...........   .......   ........................       ",
".......   .......   ...........   .......   ........................       ",
".......   .......   ...........   .......   ........................       ",
".......   .......   ...........   .......   ........................       ",
".......          ...++++.......          ...++++++++++++++++++++++++....   ",
".......          ...++++.......          ...++++++++++++++++++++++++....   ",
".......          ...++++.......          ...++++++++++++++++++++++++....   ",
"              ...+++++++             ....++++++++++++++...++++++++++....   ",
"              ...+++++++             ....++++++++++++++...++++++++++....   ",
"              ...+++++++             ....++++++++++++++...++++++++++....   ",
"              ...+++++++             ....++++++++++++++...++++++++++....   ",
"              ...+++++++             ....++++++++++++++++++++++++...       ",
"              ...+++++++             ....++++++++++++++++++++++++...       ",
"              ...+++++++             ....++++++++++++++++++++++++...       "};
