/* XPM */
static char * key_xpm[] = {
"75 75 4 1",
" 	c None",
".	c #282828",
"+	c #F8D038",
"@	c #B88820",
"                                                                           ",
"                                                                           ",
"                                                                           ",
"                                                                           ",
"                                                                           ",
"                                                                           ",
"                                                                           ",
"                                                                           ",
"                                                                           ",
"                                                                           ",
"                                                                           ",
"                                                                           ",
"                                                                           ",
"                                                                           ",
"                           .......       .......                           ",
"                           .......       .......                           ",
"                           .......       .......                           ",
"                        ...+++++++.......+++++++...                        ",
"                        ...+++++++.......+++++++...                        ",
"                        ...+++++++.......+++++++...                        ",
"                        ...@@@@@@@++++++++++++++...                        ",
"                        ...@@@@@@@++++++++++++++...                        ",
"                        ...@@@@@@@++++++++++++++...                        ",
"                        ...@@@@@@@++++++++++++++...                        ",
"                        ...@@@@@@@.......+++++++...                        ",
"                        ...@@@@@@@.......+++++++...                        ",
"                        ...@@@@@@@.......+++++++...                        ",
"                        ...@@@@@@@.......+++++++...                        ",
"                        ...@@@@@@@.......+++++++...                        ",
"                        ...@@@@@@@.......+++++++...                        ",
"                        ...@@@@@@@.......+++++++...                        ",
"                        ...@@@@@@@++++++++++++++...                        ",
"                        ...@@@@@@@++++++++++++++...                        ",
"                        ...@@@@@@@++++++++++++++...                        ",
"                           ....@@@@@@+++++++....                           ",
"                           ....@@@@@@+++++++....                           ",
"                           ....@@@@@@+++++++....                           ",
"                               ...@@@++++...                               ",
"                               ...@@@++++...                               ",
"                               ...@@@++++...                               ",
"                               ...@@@++++...                               ",
"                               ...@@@++++...                               ",
"                               ...@@@++++...                               ",
"                               ...@@@++++...                               ",
"                               ...@@@.......                               ",
"                               ...@@@.......                               ",
"                               ...@@@.......                               ",
"                               ...@@@.......                               ",
"                               ...@@@+++++++....                           ",
"                               ...@@@+++++++....                           ",
"                               ...@@@+++++++....                           ",
"                               ...@@@.......                               ",
"                               ...@@@.......                               ",
"                               ...@@@.......                               ",
"                               ...@@@.......                               ",
"                               ...@@@+++++++....                           ",
"                               ...@@@+++++++....                           ",
"                               ...@@@+++++++....                           ",
"                               ...@@@.......                               ",
"                               ...@@@.......                               ",
"                               ...@@@.......                               ",
"                                  ...                                      ",
"                                  ...                                      ",
"                                  ...                                      ",
"                                  ...                                      ",
"                                                                           ",
"                                                                           ",
"                                                                           ",
"                                                                           ",
"                                                                           ",
"                                                                           ",
"                                                                           ",
"                                                                           ",
"                                                                           ",
"                                                                           "};
