/* XPM */
static char * link_back_xpm[] = {
"75 75 14 1",
" 	c None",
".	c #292929",
"+	c #529410",
"@	c #7BBD21",
"#	c #F7A56B",
"$	c #BD6B21",
"%	c #FF7B00",
"&	c #FFFFFF",
"*	c #EF63B5",
"=	c #8C5A29",
"-	c #39946B",
";	c #42DE73",
">	c #F7DE42",
",	c #C61821",
"                               .............                               ",
"                               .............                               ",
"                               .............                               ",
"                        .......+++++++++++++.......                        ",
"                        .......+++++++++++++.......                        ",
"                        .......+++++++++++++.......                        ",
"                        .......+++++++++++++.......                        ",
"              ...   ....+++++++@@@@@@@@@@@@@@@@@+++....   ...              ",
"              ...   ....+++++++@@@@@@@@@@@@@@@@@+++....   ...              ",
"              ...   ....+++++++@@@@@@@@@@@@@@@@@+++....   ...              ",
"          ....###.......+++@@@@@@@@@@++++++++++++++.......###....          ",
"          ....###.......+++@@@@@@@@@@++++++++++++++.......###....          ",
"          ....###.......+++@@@@@@@@@@++++++++++++++.......###....          ",
"          ....###.......+++@@@@@@@@@@++++++++++++++.......###....          ",
"          ....###.......+++@@@@++++++.......+++++++++++...###....          ",
"          ....###.......+++@@@@++++++.......+++++++++++...###....          ",
"          ....###.......+++@@@@++++++.......+++++++++++...###....          ",
"          ....$$$...%%%%...++++...++++++++++++++...%%%%...$$$....          ",
"          ....$$$...%%%%...++++...++++++++++++++...%%%%...$$$....          ",
"          ....$$$...%%%%...++++...++++++++++++++...%%%%...$$$....          ",
"          ....$$$$$$....%%%....+++@@@@@@@@@@&&&&+++.......$$$....          ",
"          ....$$$$$$....%%%....+++@@@@@@@@@@&&&&+++.......$$$....          ",
"          ....$$$$$$....%%%....+++@@@@@@@@@@&&&&+++.......$$$....          ",
"          ....$$$$$$....%%%....+++@@@@@@@@@@&&&&+++.......$$$....          ",
"          ....$$$$$$.......%%%%...+++++++@@@@@@@+++....$$$$$$....          ",
"          ....$$$$$$.......%%%%...+++++++@@@@@@@+++....$$$$$$....          ",
"          ....$$$$$$.......%%%%...+++++++@@@@@@@+++....$$$$$$....          ",
"              ......****.............++++@@@@@@@+++....***...              ",
"              ......****.............++++@@@@@@@+++....***...              ",
"              ......****.............++++@@@@@@@+++....***...              ",
"              ......****.............++++@@@@@@@+++....***...              ",
"                 ...***********......+++++++@@@@...****...                 ",
"                 ...***********......+++++++@@@@...****...                 ",
"                 ...***********......+++++++@@@@...****...                 ",
"                 .......**********...+++++++@@@@.............              ",
"                 .......**********...+++++++@@@@.............              ",
"                 .......**********...+++++++@@@@.............              ",
"              ...===...........******....+++@@@@.......======....          ",
"              ...===...........******....+++@@@@.......======....          ",
"              ...===...........******....+++@@@@.......======....          ",
"              ...===...........******....+++@@@@.......======....          ",
"          ....======....---;;;;.................---....======....          ",
"          ....======....---;;;;.................---....======....          ",
"          ....======....---;;;;.................---....======....          ",
"          ....======....-------;;;;;;;;;;;;;;;;;---....===...              ",
"          ....======....-------;;;;;;;;;;;;;;;;;---....===...              ",
"          ....======....-------;;;;;;;;;;;;;;;;;---....===...              ",
"          ....======....-------;;;;;;;;;;;;;;;;;---....===...              ",
"          ..........>>>>-------;;;;;;;;;;;;;;;;;-------...                 ",
"          ..........>>>>-------;;;;;;;;;;;;;;;;;-------...                 ",
"          ..........>>>>-------;;;;;;;;;;;;;;;;;-------...                 ",
"          ....$$$...---->>>----------;;;;;;;------->>>>...                 ",
"          ....$$$...---->>>----------;;;;;;;------->>>>...                 ",
"          ....$$$...---->>>----------;;;;;;;------->>>>...                 ",
"          ....$$$...---->>>----------;;;;;;;------->>>>...                 ",
"              ......------->>>>>>>---------->>>>>>>----...                 ",
"              ......------->>>>>>>---------->>>>>>>----...                 ",
"              ......------->>>>>>>---------->>>>>>>----...                 ",
"                    ....---------->>>>>>>>>>-------....                    ",
"                    ....---------->>>>>>>>>>-------....                    ",
"                    ....---------->>>>>>>>>>-------....                    ",
"                 ..............-------------..............                 ",
"                 ..............-------------..............                 ",
"                 ..............-------------..............                 ",
"                 ..............-------------..............                 ",
"                 .......,,,,,,,.............,,,,,,,.......                 ",
"                 .......,,,,,,,.............,,,,,,,.......                 ",
"                 .......,,,,,,,.............,,,,,,,.......                 ",
"                    ...................................                    ",
"                    ...................................                    ",
"                    ...................................                    ",
"                    ...................................                    ",
"                           .....................                           ",
"                           .....................                           ",
"                           .....................                           "};
