/* XPM */
static char * link_right_xpm[] = {
"75 75 17 1",
" 	c None",
".	c #282828",
"+	c #78B820",
"@	c #509010",
"#	c #F87800",
"$	c #E860B0",
"%	c #F0A068",
"&	c #B86820",
"*	c #383838",
"=	c #F8F8F8",
"-	c #8080F0",
";	c #E09050",
">	c #389068",
",	c #40D870",
"'	c #885828",
")	c #F0D840",
"!	c #C01820",
"                           ..............                                  ",
"                           ..............                                  ",
"                           ..............                                  ",
"                    .......+++++++@@@@@@@...                               ",
"                    .......+++++++@@@@@@@...                               ",
"                    .......+++++++@@@@@@@...                               ",
"                    .......+++++++@@@@@@@...                               ",
"                 ...@@@@++++++++++@@@#######.......                        ",
"                 ...@@@@++++++++++@@@#######.......                        ",
"                 ...@@@@++++++++++@@@#######.......                        ",
"          ..........+++++++++++@@@@@@#######....$$$....                    ",
"          ..........+++++++++++@@@@@@#######....$$$....                    ",
"          ..........+++++++++++@@@@@@#######....$$$....                    ",
"          ..........+++++++++++@@@@@@#######....$$$....                    ",
"       ...++++@@@...@@@@@@@@@@@##########...$$$$$$$$$$$...                 ",
"       ...++++@@@...@@@@@@@@@@@##########...$$$$$$$$$$$...                 ",
"       ...++++@@@...@@@@@@@@@@@##########...$$$$$$$$$$$...                 ",
"   ....+++++++@@@@@@@@@@...#######.......$$$$$$$$$$$$$$...                 ",
"   ....+++++++@@@@@@@@@@...#######.......$$$$$$$$$$$$$$...                 ",
"   ....+++++++@@@@@@@@@@...#######.......$$$$$$$$$$$$$$...                 ",
"   ....+++@@@@@@@@@@....%%%.......$$$$$$$$$$$$$$.......                    ",
"   ....+++@@@@@@@@@@....%%%.......$$$$$$$$$$$$$$.......                    ",
"   ....+++@@@@@@@@@@....%%%.......$$$$$$$$$$$$$$.......                    ",
"   ....+++@@@@@@@@@@....%%%.......$$$$$$$$$$$$$$.......                    ",
"   ....+++@@@@@@@.......%%%%%%%...$$$...........&&&....******              ",
"   ....+++@@@@@@@.......%%%%%%%...$$$...........&&&....******              ",
"   ....+++@@@@@@@.......%%%%%%%...$$$...........&&&....******              ",
"       ...@@@@..........&&&%%%%...$$$....===....%%%....***---****          ",
"       ...@@@@..........&&&%%%%...$$$....===....%%%....***---****          ",
"       ...@@@@..........&&&%%%%...$$$....===....%%%....***---****          ",
"       ...@@@@..........&&&%%%%...$$$....===....%%%....***---****          ",
"          ....   .......&&&&&&&...$$$....===....%%%%%%%...===----***       ",
"          ....   .......&&&&&&&...$$$....===....%%%%%%%...===----***       ",
"          ....   .......&&&&&&&...$$$....===....%%%%%%%...===----***       ",
"                 ...$$$$...&&&&&&&...%%%%&&&%%%%&&&....***=======***       ",
"                 ...$$$$...&&&&&&&...%%%%&&&%%%%&&&....***=======***       ",
"                 ...$$$$...&&&&&&&...%%%%&&&%%%%&&&....***=======***       ",
"                    ...........&&&&&&&&&&&&&.......;;;;...=======***       ",
"                    ...........&&&&&&&&&&&&&.......;;;;...=======***       ",
"                    ...........&&&&&&&&&&&&&.......;;;;...=======***       ",
"                    ...........&&&&&&&&&&&&&.......;;;;...=======***       ",
"                        ...>>>>.............>>>>...;;;;...=======***       ",
"                        ...>>>>.............>>>>...;;;;...=======***       ",
"                        ...>>>>.............>>>>...;;;;...=======***       ",
"                    ....,,,....''''''....>>>>>>>.......***===----***       ",
"                    ....,,,....''''''....>>>>>>>.......***===----***       ",
"                    ....,,,....''''''....>>>>>>>.......***===----***       ",
"                    ....,,,....''''''....>>>>>>>.......***===----***       ",
"                    ....,,,....''''''....,,,,,,,>>>....***-------***       ",
"                    ....,,,....''''''....,,,,,,,>>>....***-------***       ",
"                    ....,,,....''''''....,,,,,,,>>>....***-------***       ",
"                 ...))))>>>..............,,,>>>>)))....***---****          ",
"                 ...))))>>>..............,,,>>>>)))....***---****          ",
"                 ...))))>>>..............,,,>>>>)))....***---****          ",
"                 ...))))>>>..............,,,>>>>)))....***---****          ",
"                 ...>>>>)))....;;;;;;....>>>)))))))....******              ",
"                 ...>>>>)))....;;;;;;....>>>)))))))....******              ",
"                 ...>>>>)))....;;;;;;....>>>)))))))....******              ",
"                    ....>>>....;;;;;;....)))>>>>>>>....                    ",
"                    ....>>>....;;;;;;....)))>>>>>>>....                    ",
"                    ....>>>....;;;;;;....)))>>>>>>>....                    ",
"                    .................>>>>>>>...........                    ",
"                    .................>>>>>>>...........                    ",
"                    .................>>>>>>>...........                    ",
"                    .................>>>>>>>...........                    ",
"                 ..............!!!!!!.....................                 ",
"                 ..............!!!!!!.....................                 ",
"                 ..............!!!!!!.....................                 ",
"                 .........................................                 ",
"                 .........................................                 ",
"                 .........................................                 ",
"                 .........................................                 ",
"                    ...................................                    ",
"                    ...................................                    ",
"                    ...................................                    "};
