/* XPM */
static char * link_left_xpm[] = {
"75 75 17 1",
" 	c None",
".	c #292929",
"+	c #529410",
"@	c #7BBD21",
"#	c #FF7B00",
"$	c #EF63B5",
"%	c #E79452",
"&	c #393939",
"*	c #BD6B21",
"=	c #F7A56B",
"-	c #8484F7",
";	c #FFFFFF",
">	c #39946B",
",	c #42DE73",
"'	c #8C5A29",
")	c #F7DE42",
"!	c #C61821",
"                                  ..............                           ",
"                                  ..............                           ",
"                                  ..............                           ",
"                               ...+++++++@@@@@@@.......                    ",
"                               ...+++++++@@@@@@@.......                    ",
"                               ...+++++++@@@@@@@.......                    ",
"                               ...+++++++@@@@@@@.......                    ",
"                        .......######++++@@@@@@@@@@++++...                 ",
"                        .......######++++@@@@@@@@@@++++...                 ",
"                        .......######++++@@@@@@@@@@++++...                 ",
"                    ....$$$....######+++++++@@@@@@@@@@@..........          ",
"                    ....$$$....######+++++++@@@@@@@@@@@..........          ",
"                    ....$$$....######+++++++@@@@@@@@@@@..........          ",
"                    ....$$$....######+++++++@@@@@@@@@@@..........          ",
"                 ...$$$$$$$$$$$...##########+++++++++++...+++@@@@...       ",
"                 ...$$$$$$$$$$$...##########+++++++++++...+++@@@@...       ",
"                 ...$$$$$$$$$$$...##########+++++++++++...+++@@@@...       ",
"                 ...$$$$$$$$$$$$$$.......#######...++++++++++@@@@@@@....   ",
"                 ...$$$$$$$$$$$$$$.......#######...++++++++++@@@@@@@....   ",
"                 ...$$$$$$$$$$$$$$.......#######...++++++++++@@@@@@@....   ",
"                    .......$$$$$$$$$$$$$$.......%%%....++++++++++@@@....   ",
"                    .......$$$$$$$$$$$$$$.......%%%....++++++++++@@@....   ",
"                    .......$$$$$$$$$$$$$$.......%%%....++++++++++@@@....   ",
"                    .......$$$$$$$$$$$$$$.......%%%....++++++++++@@@....   ",
"              &&&&&&....***..........$$$$...=======.......+++++++@@@....   ",
"              &&&&&&....***..........$$$$...=======.......+++++++@@@....   ",
"              &&&&&&....***..........$$$$...=======.......+++++++@@@....   ",
"          &&&&---&&&....%%%....;;;...$$$$...====***..........++++...       ",
"          &&&&---&&&....%%%....;;;...$$$$...====***..........++++...       ",
"          &&&&---&&&....%%%....;;;...$$$$...====***..........++++...       ",
"          &&&&---&&&....%%%....;;;...$$$$...====***..........++++...       ",
"       &&&----;;;...%%%%===....;;;...$$$$...*******.......   ....          ",
"       &&&----;;;...%%%%===....;;;...$$$$...*******.......   ....          ",
"       &&&----;;;...%%%%===....;;;...$$$$...*******.......   ....          ",
"       &&&;;;;;;;&&&....***====***===....*******...$$$$...                 ",
"       &&&;;;;;;;&&&....***====***===....*******...$$$$...                 ",
"       &&&;;;;;;;&&&....***====***===....*******...$$$$...                 ",
"       &&&;;;;;;;...%%%%.......*************...........                    ",
"       &&&;;;;;;;...%%%%.......*************...........                    ",
"       &&&;;;;;;;...%%%%.......*************...........                    ",
"       &&&;;;;;;;...%%%%.......*************...........                    ",
"       &&&;;;;;;;...****...>>>>.............>>>>>>>....                    ",
"       &&&;;;;;;;...****...>>>>.............>>>>>>>....                    ",
"       &&&;;;;;;;...****...>>>>.............>>>>>>>....                    ",
"       &&&----;;;.......>>>,,,,>>>>>>.......>>>>,,,....                    ",
"       &&&----;;;.......>>>,,,,>>>>>>.......>>>>,,,....                    ",
"       &&&----;;;.......>>>,,,,>>>>>>.......>>>>,,,....                    ",
"       &&&----;;;.......>>>,,,,>>>>>>.......>>>>,,,....                    ",
"       &&&-------&&&.......>>>>,,,...'''''''....,,,....                    ",
"       &&&-------&&&.......>>>>,,,...'''''''....,,,....                    ",
"       &&&-------&&&.......>>>>,,,...'''''''....,,,....                    ",
"          &&&&---&&&....)))....>>>...'''''''.......))))...                 ",
"          &&&&---&&&....)))....>>>...'''''''.......))))...                 ",
"          &&&&---&&&....)))....>>>...'''''''.......))))...                 ",
"          &&&&---&&&....)))....>>>...'''''''.......))))...                 ",
"              &&&&&&....>>>))))...%%%%%%%%%%....)))>>>>...                 ",
"              &&&&&&....>>>))))...%%%%%%%%%%....)))>>>>...                 ",
"              &&&&&&....>>>))))...%%%%%%%%%%....)))>>>>...                 ",
"                        ...>>>>...%%%%%%%%%%....>>>....                    ",
"                        ...>>>>...%%%%%%%%%%....>>>....                    ",
"                        ...>>>>...%%%%%%%%%%....>>>....                    ",
"                    .................%%%%%%%...........                    ",
"                    .................%%%%%%%...........                    ",
"                    .................%%%%%%%...........                    ",
"                    .................%%%%%%%...........                    ",
"                 ..............!!!........................                 ",
"                 ..............!!!........................                 ",
"                 ..............!!!........................                 ",
"                 .................#######!!!!!!!..........                 ",
"                 .................#######!!!!!!!..........                 ",
"                 .................#######!!!!!!!..........                 ",
"                 .................#######!!!!!!!..........                 ",
"                    ...................................                    ",
"                    ...................................                    ",
"                    ...................................                    "};
