/* XPM */
static char * link_right2_xpm[] = {
"75 75 17 1",
" 	c None",
".	c #282828",
"+	c #509010",
"@	c #78B820",
"#	c #E860B0",
"$	c #F87800",
"%	c #F0A068",
"&	c #383838",
"*	c #B86820",
"=	c #8080F0",
"-	c #F8F8F8",
";	c #885828",
">	c #389068",
",	c #E09050",
"'	c #40D870",
")	c #C01820",
"!	c #F0D840",
"                           ..............                                  ",
"                           ..............                                  ",
"                           ..............                                  ",
"                        ...++++@@@@@@++++...           ...                 ",
"                        ...++++@@@@@@++++...           ...                 ",
"                        ...++++@@@@@@++++...           ...                 ",
"                        ...++++@@@@@@++++...           ...                 ",
"          ....      ....+++@@@@@@@@@@+++++++...........###...              ",
"          ....      ....+++@@@@@@@@@@+++++++...........###...              ",
"          ....      ....+++@@@@@@@@@@+++++++...........###...              ",
"       ...@@@@..........@@@@@@@@@@+++++++$$$$$$$...#######...              ",
"       ...@@@@..........@@@@@@@@@@+++++++$$$$$$$...#######...              ",
"       ...@@@@..........@@@@@@@@@@+++++++$$$$$$$...#######...              ",
"       ...@@@@..........@@@@@@@@@@+++++++$$$$$$$...#######...              ",
"       ...@@@@@@@+++....++++++++++$$$$$$$$$$....##########...              ",
"       ...@@@@@@@+++....++++++++++$$$$$$$$$$....##########...              ",
"       ...@@@@@@@+++....++++++++++$$$$$$$$$$....##########...              ",
"       ...++++@@@@@@+++++++....$$$$$$.......##############...              ",
"       ...++++@@@@@@+++++++....$$$$$$.......##############...              ",
"       ...++++@@@@@@+++++++....$$$$$$.......##############...              ",
"          ....++++++++++...%%%%......##############.......&&&              ",
"          ....++++++++++...%%%%......##############.......&&&              ",
"          ....++++++++++...%%%%......##############.......&&&              ",
"          ....++++++++++...%%%%......##############.......&&&              ",
"              .............%%%%%%%...#######.......****...===&&&&          ",
"              .............%%%%%%%...#######.......****...===&&&&          ",
"              .............%%%%%%%...#######.......****...===&&&&          ",
"                 ..........****%%%...####...----...%%%%...---====&&&       ",
"                 ..........****%%%...####...----...%%%%...---====&&&       ",
"                 ..........****%%%...####...----...%%%%...---====&&&       ",
"                 ..........****%%%...####...----...%%%%...---====&&&       ",
"              ...#######...****...#######...----...%%%%%%%...----&&&       ",
"              ...#######...****...#######...----...%%%%%%%...----&&&       ",
"              ...#######...****...#######...----...%%%%%%%...----&&&       ",
"                 .......###....***.......%%%****%%%****...-------&&&       ",
"                 .......###....***.......%%%****%%%****...-------&&&       ",
"                 .......###....***.......%%%****%%%****...-------&&&       ",
"                        ..........**************.......&&&-------&&&       ",
"                        ..........**************.......&&&-------&&&       ",
"                        ..........**************.......&&&-------&&&       ",
"                        ..........**************.......&&&-------&&&       ",
"                    ....;;;;;;;;;;.................****...---====&&&       ",
"                    ....;;;;;;;;;;.................****...---====&&&       ",
"                    ....;;;;;;;;;;.................****...---====&&&       ",
"                 ...;;;;.......;;;...>>>>>>>>>>>.......&&&=======&&&       ",
"                 ...;;;;.......;;;...>>>>>>>>>>>.......&&&=======&&&       ",
"                 ...;;;;.......;;;...>>>>>>>>>>>.......&&&=======&&&       ",
"                 ...;;;;.......;;;...>>>>>>>>>>>.......&&&=======&&&       ",
"                 .......,,,,,,,...>>>'''''''>>>>>>>>>>>...===&&&&          ",
"                 .......,,,,,,,...>>>'''''''>>>>>>>>>>>...===&&&&          ",
"                 .......,,,,,,,...>>>'''''''>>>>>>>>>>>...===&&&&          ",
"                 .......,,,,,,,...>>>'''''''....>>>>>>>...&&&              ",
"                 .......,,,,,,,...>>>'''''''....>>>>>>>...&&&              ",
"                 .......,,,,,,,...>>>'''''''....>>>>>>>...&&&              ",
"                 .......,,,,,,,...>>>'''''''....>>>>>>>...&&&              ",
"              ...)))...........>>>'''>>>>!!!>>>>.............              ",
"              ...)))...........>>>'''>>>>!!!>>>>.............              ",
"              ...)))...........>>>'''>>>>!!!>>>>.............              ",
"              ...)))....>>>>>>>!!!!!!!!!!>>>....)))$$$$$$$...              ",
"              ...)))....>>>>>>>!!!!!!!!!!>>>....)))$$$$$$$...              ",
"              ...)))....>>>>>>>!!!!!!!!!!>>>....)))$$$$$$$...              ",
"              ...)))))))...>>>>>>>>>>>>>>...))))$$$$$$$...                 ",
"              ...)))))))...>>>>>>>>>>>>>>...))))$$$$$$$...                 ",
"              ...)))))))...>>>>>>>>>>>>>>...))))$$$$$$$...                 ",
"              ...)))))))...>>>>>>>>>>>>>>...))))$$$$$$$...                 ",
"                 ......................................                    ",
"                 ......................................                    ",
"                 ......................................                    ",
"                 .........................................                 ",
"                 .........................................                 ",
"                 .........................................                 ",
"                 .........................................                 ",
"                 .........................................                 ",
"                 .........................................                 ",
"                 .........................................                 "};
