/* XPM */
static char * rupee_xpm[] = {
"75 75 5 1",
" 	c None",
".	c #282C28",
"+	c #F8FCF8",
"@	c #489438",
"#	c #98D478",
"                                                                           ",
"                                                                           ",
"                                                                           ",
"                                                                           ",
"                                                                           ",
"                                                                           ",
"                                                                           ",
"                                                                           ",
"                                                                           ",
"                                                                           ",
"                                                                           ",
"                                                                           ",
"                                                                           ",
"                                                                           ",
"                                  .......                                  ",
"                                  .......                                  ",
"                                  .......                                  ",
"                               ...+++@@@@...                               ",
"                               ...+++@@@@...                               ",
"                               ...+++@@@@...                               ",
"                           ....+++++++++++++....                           ",
"                           ....+++++++++++++....                           ",
"                           ....+++++++++++++....                           ",
"                           ....+++++++++++++....                           ",
"                        ...+++++++###@@@@+++.......                        ",
"                        ...+++++++###@@@@+++.......                        ",
"                        ...+++++++###@@@@+++.......                        ",
"                        ...++++###+++++++@@@@@@@...                        ",
"                        ...++++###+++++++@@@@@@@...                        ",
"                        ...++++###+++++++@@@@@@@...                        ",
"                        ...++++###+++++++@@@@@@@...                        ",
"                        ...####@@@+++++++@@@####...                        ",
"                        ...####@@@+++++++@@@####...                        ",
"                        ...####@@@+++++++@@@####...                        ",
"                        ...####@@@+++++++@@@####...                        ",
"                        ...####@@@+++++++@@@####...                        ",
"                        ...####@@@+++++++@@@####...                        ",
"                        ...++++@@@+++####@@@####...                        ",
"                        ...++++@@@+++####@@@####...                        ",
"                        ...++++@@@+++####@@@####...                        ",
"                        ...++++@@@+++####@@@####...                        ",
"                        ...+++++++#######@@@@@@@...                        ",
"                        ...+++++++#######@@@@@@@...                        ",
"                        ...+++++++#######@@@@@@@...                        ",
"                        ...+++++++#######@@@@@@@...                        ",
"                        ...+++++++#######@@@@@@@...                        ",
"                        ...+++++++#######@@@@@@@...                        ",
"                        ...+++++++#######@@@@@@@...                        ",
"                        ...++++######@@@@@@@@@@@...                        ",
"                        ...++++######@@@@@@@@@@@...                        ",
"                        ...++++######@@@@@@@@@@@...                        ",
"                           ....######@@@@@@@....                           ",
"                           ....######@@@@@@@....                           ",
"                           ....######@@@@@@@....                           ",
"                           ....######@@@@@@@....                           ",
"                               ...@@@@@@@...                               ",
"                               ...@@@@@@@...                               ",
"                               ...@@@@@@@...                               ",
"                                  .......                                  ",
"                                  .......                                  ",
"                                  .......                                  ",
"                                                                           ",
"                                                                           ",
"                                                                           ",
"                                                                           ",
"                                                                           ",
"                                                                           ",
"                                                                           ",
"                                                                           ",
"                                                                           ",
"                                                                           ",
"                                                                           ",
"                                                                           ",
"                                                                           ",
"                                                                           "};
