/* XPM */
static char * wall_xpm[] = {
"75 75 5 1",
" 	c #282828",
".	c #C8D0A0",
"+	c #80A870",
"@	c #407048",
"#	c #305030",
"                                                                           ",
"                                                                           ",
"                                                                           ",
"   .......    ......    .......   .......+++    .......   .......   .......",
"   .......    ......    .......   .......+++    .......   .......   .......",
"   .......    ......    .......   .......+++    .......   .......   .......",
"   .......    ......    .......   .......+++    .......   .......   .......",
"   +++++++    ++++++    +++++++   +++++++...    +++++++   +++++++   +++++++",
"   +++++++    ++++++    +++++++   +++++++...    +++++++   +++++++   +++++++",
"   +++++++    ++++++    +++++++   +++++++...    +++++++   +++++++   +++++++",
"   +++++++    ++++++    +++++++   ++++++++++    +++++++   +++++++   +++++++",
"   +++++++    ++++++    +++++++   ++++++++++    +++++++   +++++++   +++++++",
"   +++++++    ++++++    +++++++   ++++++++++    +++++++   +++++++   +++++++",
"   +++++++    ++++++    +++++++   ++++++++++    +++++++   +++++++   +++++++",
"   +++++++    ++++++    +++++++   ++++++++++    +++++++   +++++++   +++++++",
"   +++++++    ++++++    +++++++   ++++++++++    +++++++   +++++++   +++++++",
"   +++++++    ++++++    +++++++   ++++++++++    +++++++   +++++++   +++++++",
"   +++++++    ++++++    +++++++   ++++++++++    +++++++   +++++++   +++++++",
"   +++++++    ++++++    +++++++   ++++++++++    +++++++   +++++++   +++++++",
"   +++++++    ++++++    +++++++   ++++++++++    +++++++   +++++++   +++++++",
"   +++++++    ++++++    +++++++   ++++++++++    +++++++   +++++++   +++++++",
"   +++++++    ++++++    +++++++   ++++++++++    +++++++   +++++++   +++++++",
"   +++++++    ++++++    +++++++   ++++++++++    +++++++   +++++++   +++++++",
"   +++++++    ++++++    +++++++   ++++++++++    +++++++   +++++++   +++++++",
"   +++++++    ++++++    +++++++   ++++++++++    +++++++   +++++++   +++++++",
"   +++++++    ++++++    +++++++   ++++++++++    +++++++   +++++++   +++++++",
"   +++++++    ++++++    +++++++   ++++++++++    +++++++   +++++++   +++++++",
"   +++++++    ++++++    +++++++   ++++++++++    +++++++   +++++++   +++++++",
"   +++++++    ++++++    +++++++   ++++++++++    +++++++   +++++++   +++++++",
"   +++++++    ++++++    +++++++   ++++++++++    +++++++   +++++++   +++++++",
"   +++++++    ++++++    +++++++   ++++++++++    +++++++   +++++++   +++++++",
"   +++++++    ++++++    +++++++   ++++++++++    +++++++   +++++++   +++++++",
"   +++++++    ++++++    +++++++   ++++++++++    +++++++   +++++++   +++++++",
"   +++++++    ++++++    +++++++   ++++++++++    +++++++   +++++++   +++++++",
"   +++++++    ++++++    +++++++   ++++++++++    +++++++   +++++++   +++++++",
"   +++++++    ++++++    +++++++   ++++++++++    +++++++   +++++++   +++++++",
"   +++++++    ++++++    +++++++   ++++++++++    +++++++   +++++++   +++++++",
"   +++++++    ++++++    +++++++   +++++++...    +++++++   +++++++   +++++++",
"   +++++++    ++++++    +++++++   +++++++...    +++++++   +++++++   +++++++",
"   +++++++    ++++++    +++++++   +++++++...    +++++++   +++++++   +++++++",
"   +++++++    ++++++    +++++++   +++++++...    +++++++   +++++++   +++++++",
"   ++++...    +++...    +++....   +++....+++    +++....   +++....   ++++...",
"   ++++...    +++...    +++....   +++....+++    +++....   +++....   ++++...",
"   ++++...    +++...    +++....   +++....+++    +++....   +++....   ++++...",
"   ....+++    ...+++    ...++++   ...++++@@@    ...++++   ...++++   ....+++",
"   ....+++    ...+++    ...++++   ...++++@@@    ...++++   ...++++   ....+++",
"   ....+++    ...+++    ...++++   ...++++@@@    ...++++   ...++++   ....+++",
"   ....+++    ...+++    ...++++   ...++++@@@    ...++++   ...++++   ....+++",
"   #######    ######    #######   ##########    #######   #######   #######",
"   #######    ######    #######   ##########    #######   #######   #######",
"   #######    ######    #######   ##########    #######   #######   #######",
"                                                                           ",
"                                                                           ",
"                                                                           ",
"                                                                           ",
"   +++++++    ++++++    +++++++   ++++++++++    +++++++   +++++++   +++++++",
"   +++++++    ++++++    +++++++   ++++++++++    +++++++   +++++++   +++++++",
"   +++++++    ++++++    +++++++   ++++++++++    +++++++   +++++++   +++++++",
"   +++++++    ++++++    +++++++   +++++++...    +++++++   +++++++   +++++++",
"   +++++++    ++++++    +++++++   +++++++...    +++++++   +++++++   +++++++",
"   +++++++    ++++++    +++++++   +++++++...    +++++++   +++++++   +++++++",
"   ++++...    +++...    +++....   +++....+++    +++....   +++....   ++++...",
"   ++++...    +++...    +++....   +++....+++    +++....   +++....   ++++...",
"   ++++...    +++...    +++....   +++....+++    +++....   +++....   ++++...",
"   ++++...    +++...    +++....   +++....+++    +++....   +++....   ++++...",
"   ....+++    ...+++    ...++++   ...++++@@@    ...++++   ...++++   ....+++",
"   ....+++    ...+++    ...++++   ...++++@@@    ...++++   ...++++   ....+++",
"   ....+++    ...+++    ...++++   ...++++@@@    ...++++   ...++++   ....+++",
"   #######    ######    #######   ##########    #######   #######   #######",
"   #######    ######    #######   ##########    #######   #######   #######",
"   #######    ######    #######   ##########    #######   #######   #######",
"   #######    ######    #######   ##########    #######   #######   #######",
"                                                                           ",
"                                                                           ",
"                                                                           "};
