/* XPM */
static char *e2c8224b9143422980bc6e47f3dd5f85izHT6W1l6rdri24g[] = {
/* columns rows colors chars-per-pixel */
"75 75 5 1 ",
"  c #282828",
". c #305030",
"X c #407048",
"o c #80A870",
"O c #C8D0A0",
/* pixels */
"                                                                           ",
"                                                                           ",
"                                                                           ",
"                                                                           ",
"                                                                           ",
"     OOOOOOOOOoooooooooooooooooooooooooooooooooooooooooooooooOOOOOOOOO     ",
"     OOOOOOOOOoooooooooooooooooooooooooooooooooooooooooooooooOOOOOOOOO     ",
"     OOOOOOOOOoooooooooooooooooooooooooooooooooooooooooooooooOOOOOOOOO     ",
"     OOOOOOOOOoooooooooooooooooooooooooooooooooooooooooooooooOOOOOOOOO     ",
"     oooooooooOOOOOoooooooooooooooooooooooooooooooooooooOOOOOoooooXXXX     ",
"     oooooooooOOOOOoooooooooooooooooooooooooooooooooooooOOOOOoooooXXXX     ",
"     oooooooooOOOOOoooooooooooooooooooooooooooooooooooooOOOOOoooooXXXX     ",
"     oooooooooOOOOOoooooooooooooooooooooooooooooooooooooOOOOOoooooXXXX     ",
"     oooooooooOOOOOoooooooooooooooooooooooooooooooooooooOOOOOoooooXXXX     ",
"     ooooooooooooooOOOOOOOOOOOOOOOOOOOOOOOOOOOOOOOOOOOOOoooooXXXXXXXXX     ",
"     ooooooooooooooOOOOOOOOOOOOOOOOOOOOOOOOOOOOOOOOOOOOOoooooXXXXXXXXX     ",
"     ooooooooooooooOOOOOOOOOOOOOOOOOOOOOOOOOOOOOOOOOOOOOoooooXXXXXXXXX     ",
"     ooooooooooooooOOOOOOOOOOOOOOOOOOOOOOOOOOOOOOOOOOOOOoooooXXXXXXXXX     ",
"     ooooooooooooooOOOOOOOOOOOOOOOOOOOOOOOOOOOOOOOOOOOOOoooooXXXXXXXXX     ",
"     ooooooooooooooOOOOOOOOOOOOOOOOOOOOOOOOOOOOOOOOOOOOOXXXXXXXXXXXXXX     ",
"     ooooooooooooooOOOOOOOOOOOOOOOOOOOOOOOOOOOOOOOOOOOOOXXXXXXXXXXXXXX     ",
"     ooooooooooooooOOOOOOOOOOOOOOOOOOOOOOOOOOOOOOOOOOOOOXXXXXXXXXXXXXX     ",
"     ooooooooooooooOOOOOOOOOOOOOOOOOOOOOOOOOOOOOOOOOOOOOXXXXXXXXXXXXXX     ",
"     ooooooooooooooOOOOOOOOOOOOOOOOOOOOOOOOOOOOOOOOOOOOOXXXXXXXXXXXXXX     ",
"     ooooooooooooooOOOOOOOOOOOOOOOOOOOOOOOOOOOOOOOOOOOOOXXXXXXXXXXXXXX     ",
"     ooooooooooooooOOOOOOOOOOOOOOOOOOOOOOOOOOOOOOOOOOOOOXXXXXXXXXXXXXX     ",
"     ooooooooooooooOOOOOOOOOOOOOOOOOOOOOOOOOOOOOOOOOOOOOXXXXXXXXXXXXXX     ",
"     ooooooooooooooOOOOOOOOOOOOOOOOOOOOOOOOOOOOOOOOOOOOOXXXXXXXXXXXXXX     ",
"     ooooooooooooooOOOOOOOOOOOOOOOOOOOOOOOOOOOOOOOOOOOOOXXXXXXXXXXXXXX     ",
"     ooooooooooooooOOOOOOOOOOOOOOOOOOOOOOOOOOOOOOOOOOOOOXXXXXXXXXXXXXX     ",
"     ooooooooooooooOOOOOOOOOOOOOOOOOOOOOOOOOOOOOOOOOOOOOXXXXXXXXXXXXXX     ",
"     ooooooooooooooOOOOOOOOOOOOOOOOOOOOOOOOOOOOOOOOOOOOOXXXXXXXXXXXXXX     ",
"     ooooooooooooooOOOOOOOOOOOOOOOOOOOOOOOOOOOOOOOOOOOOOXXXXXXXXXXXXXX     ",
"     ooooooooooooooOOOOOOOOOOOOOOOOOOOOOOOOOOOOOOOOOOOOOXXXXXXXXXXXXXX     ",
"     ooooooooooooooOOOOOOOOOOOOOOOOOOOOOOOOOOOOOOOOOOOOOXXXXXXXXXXXXXX     ",
"     ooooooooooooooOOOOOOOOOOOOOOOOOOOOOOOOOOOOOOOOOOOOOXXXXXXXXXXXXXX     ",
"     ooooooooooooooOOOOOOOOOOOOOOOOOOOOOOOOOOOOOOOOOOOOOXXXXXXXXXXXXXX     ",
"     ooooooooooooooOOOOOOOOOOOOOOOOOOOOOOOOOOOOOOOOOOOOOXXXXXXXXXXXXXX     ",
"     ooooooooooooooOOOOOOOOOOOOOOOOOOOOOOOOOOOOOOOOOOOOOXXXXXXXXXXXXXX     ",
"     ooooooooooooooOOOOOOOOOOOOOOOOOOOOOOOOOOOOOOOOOOOOOXXXXXXXXXXXXXX     ",
"     ooooooooooooooOOOOOOOOOOOOOOOOOOOOOOOOOOOOOOOOOOOOOXXXXXXXXXXXXXX     ",
"     ooooooooooooooOOOOOOOOOOOOOOOOOOOOOOOOOOOOOOOOOOOOOXXXXXXXXXXXXXX     ",
"     ooooooooooooooOOOOOOOOOOOOOOOOOOOOOOOOOOOOOOOOOOOOOXXXXXXXXXXXXXX     ",
"     ooooooooooooooOOOOOOOOOOOOOOOOOOOOOOOOOOOOOOOOOOOOOXXXXXXXXXXXXXX     ",
"     ooooooooooooooOOOOOOOOOOOOOOOOOOOOOOOOOOOOOOOOOOOOOXXXXXXXXXXXXXX     ",
"     ooooooooooooooOOOOOOOOOOOOOOOOOOOOOOOOOOOOOOOOOOOOOXXXXXXXXXXXXXX     ",
"     ooooooooooooooOOOOOOOOOOOOOOOOOOOOOOOOOOOOOOOOOOOOOXXXXXXXXXXXXXX     ",
"     ooooooooooooooOOOOOOOOOOOOOOOOOOOOOOOOOOOOOOOOOOOOOXXXXXXXXXXXXXX     ",
"     ooooooooooooooOOOOOOOOOOOOOOOOOOOOOOOOOOOOOOOOOOOOOXXXXXXXXXXXXXX     ",
"     ooooooooooooooOOOOOOOOOOOOOOOOOOOOOOOOOOOOOOOOOOOOOXXXXXXXXXXXXXX     ",
"     ooooooooooooooOOOOOOOOOOOOOOOOOOOOOOOOOOOOOOOOOOOOOXXXXXXXXXXXXXX     ",
"     ooooooooooooooOOOOOOOOOOOOOOOOOOOOOOOOOOOOOOOOOOOOOXXXXXXXXXXXXXX     ",
"     oooooooooOOOOOooooXXXXXXXXXXXXXXXXXXXXXXXXXXXXXXXXXoooooXXXXXXXXX     ",
"     oooooooooOOOOOooooXXXXXXXXXXXXXXXXXXXXXXXXXXXXXXXXXoooooXXXXXXXXX     ",
"     oooooooooOOOOOooooXXXXXXXXXXXXXXXXXXXXXXXXXXXXXXXXXoooooXXXXXXXXX     ",
"     oooooooooOOOOOooooXXXXXXXXXXXXXXXXXXXXXXXXXXXXXXXXXoooooXXXXXXXXX     ",
"     ooooOOOOOoooooXXXXXXXXXXXXXXXXXXXXXXXXXXXXXXXXXXXXXXXXXXoooooXXXX     ",
"     ooooOOOOOoooooXXXXXXXXXXXXXXXXXXXXXXXXXXXXXXXXXXXXXXXXXXoooooXXXX     ",
"     ooooOOOOOoooooXXXXXXXXXXXXXXXXXXXXXXXXXXXXXXXXXXXXXXXXXXoooooXXXX     ",
"     ooooOOOOOoooooXXXXXXXXXXXXXXXXXXXXXXXXXXXXXXXXXXXXXXXXXXoooooXXXX     ",
"     ooooOOOOOoooooXXXXXXXXXXXXXXXXXXXXXXXXXXXXXXXXXXXXXXXXXXoooooXXXX     ",
"     OOOOoooooXXXXXXXXXXXXXXXXXXXXXXXXXXXXXXXXXXXXXXXXXXXXXXXXXXXXoooo     ",
"     OOOOoooooXXXXXXXXXXXXXXXXXXXXXXXXXXXXXXXXXXXXXXXXXXXXXXXXXXXXoooo     ",
"     OOOOoooooXXXXXXXXXXXXXXXXXXXXXXXXXXXXXXXXXXXXXXXXXXXXXXXXXXXXoooo     ",
"     OOOOoooooXXXXXXXXXXXXXXXXXXXXXXXXXXXXXXXXXXXXXXXXXXXXXXXXXXXXoooo     ",
"     OOOOoooooXXXXXXXXXXXXXXXXXXXXXXXXXXXXXXXXXXXXXXXXXXXXXXXXXXXXoooo     ",
"     .................................................................     ",
"     .................................................................     ",
"     .................................................................     ",
"     .................................................................     ",
"                                                                           ",
"                                                                           ",
"                                                                           ",
"                                                                           ",
"                                                                           "
};
